<?xml version="1.0" standalone="no"?>
<!DOCTYPE svg PUBLIC "-//W3C//DTD SVG 1.1//EN" "http://www.w3.org/Graphics/SVG/1.1/DTD/svg11.dtd">
<svg t="1616397501534" class="icon" viewBox="0 0 1024 1024" version="1.1" xmlns="http://www.w3.org/2000/svg" p-id="2399" xmlns:xlink="http://www.w3.org/1999/xlink">
  <defs>
    <style type="text/css"></style>
  </defs>
  <path d="M756.384 160h-528a29.344 29.344 0 0 0-29.344 29.344V332.8h-9.696a29.344 29.344 0 0 0 0 58.688h9.696v201.984h-9.696a29.344 29.344 0 1 0 0 58.656h9.696v143.488a29.504 29.504 0 0 0 29.344 29.344h244.576a29.344 29.344 0 1 0 0-58.688H257.728V652.16h9.888a29.344 29.344 0 1 0 0-58.656h-9.92V392.32h9.92a29.344 29.344 0 1 0 0-58.656h-9.92V218.656H727.04V483.2a29.344 29.344 0 0 0 58.688 0V189.344A29.344 29.344 0 0 0 756.384 160z" p-id="2400"></path><path d="M619.616 336h-254.272a29.344 29.344 0 0 0 0 58.656h254.272a29.344 29.344 0 1 0 0-58.656z m-39.232 128.064h-215.04a29.344 29.344 0 0 0 0 58.656h215.04a29.344 29.344 0 0 0 0-58.656z m-78.08 126.208h-136.96a29.344 29.344 0 1 0 0 58.688h136.96a29.344 29.344 0 0 0 0-58.688z m78.08 78.112a29.504 29.504 0 0 0-29.344 29.344v136.96a29.344 29.344 0 0 0 58.688 0v-136.96a29.344 29.344 0 0 0-29.344-29.344z m128.064-117.344a29.504 29.504 0 0 0-28.8 29.344v254.272a29.344 29.344 0 1 0 58.624 0v-254.272a29.344 29.344 0 0 0-29.824-29.344z m126.208 78.304a29.344 29.344 0 0 0-29.312 29.312v176a29.344 29.344 0 1 0 58.656 0v-176a29.344 29.344 0 0 0-29.344-29.312z" p-id="2401"></path>
</svg>
