<?xml version="1.0" standalone="no"?>
<!DOCTYPE svg PUBLIC "-//W3C//DTD SVG 1.1//EN" "http://www.w3.org/Graphics/SVG/1.1/DTD/svg11.dtd">
<svg t="1616397496578" class="icon" viewBox="0 0 1024 1024" version="1.1" xmlns="http://www.w3.org/2000/svg" p-id="2274" xmlns:xlink="http://www.w3.org/1999/xlink">
  <defs>
    <style type="text/css"></style>
  </defs>
  <path d="M477.728 160l68.544 40v82.816L614.848 240v82.816l-68.576 42.784v442.176a48.224 48.224 0 1 1-68.544 3.136V408.48l-68.576 42.912 0.032 272.672a45.696 45.696 0 1 1-68.608-0.032v-312.64l137.152-85.76V160z m137.12 80l68.576 40v85.696L751.968 320l68.576 40 0.032 272.64a45.696 45.696 0 1 1-68.608-0.032v-232.64l-68.544 45.728v276.48a48.224 48.224 0 1 1-68.576 3.136V240zM477.728 160v82.816L272 371.424l0.032 261.216a45.696 45.696 0 1 1-68.608-0.032v-301.184L477.696 160z" p-id="2275"></path>
</svg>
