<?xml version="1.0" standalone="no"?>
<!DOCTYPE svg PUBLIC "-//W3C//DTD SVG 1.1//EN" "http://www.w3.org/Graphics/SVG/1.1/DTD/svg11.dtd">
<svg t="1617070192886" class="icon" viewBox="0 0 1024 1024" version="1.1" xmlns="http://www.w3.org/2000/svg" p-id="3647" xmlns:xlink="http://www.w3.org/1999/xlink">
  <defs>
    <style type="text/css"></style>
  </defs>
  <path d="M893.738667 553.664l-42.922667-132.096L765.76 159.786667c-4.373333-13.482667-23.445333-13.482667-27.818667 0L652.864 421.546667H370.389333L285.312 159.744c-4.373333-13.461333-23.424-13.461333-27.797333 0L172.437333 421.568l-42.922666 132.096a29.226667 29.226667 0 0 0 10.624 32.704l371.477333 269.888 371.498667-269.888c10.24-7.466667 14.528-20.650667 10.624-32.704" fill="#FC6D26" p-id="3648"></path><path d="M511.637333 856.277333l141.226667-434.709333h-282.453333z" fill="#04A18D" p-id="3649"></path><path d="M511.637333 856.277333l-141.226666-434.688h-197.973334z" fill="#4FC8B9" p-id="3650"></path><path d="M172.437333 421.568l-42.922666 132.096a29.226667 29.226667 0 0 0 10.624 32.704l371.498666 269.909333-339.2-434.709333z" fill="#83E2D6" p-id="3651"></path><path d="M172.458667 421.568h197.930666L285.312 159.744c-4.373333-13.461333-23.424-13.461333-27.797333 0L172.458667 421.568z" fill="#04A18D" p-id="3652"></path><path d="M511.637333 856.277333l141.226667-434.688h197.973333z" fill="#4FC8B9" p-id="3653"></path><path d="M850.837333 421.568l42.922667 132.096a29.226667 29.226667 0 0 1-10.624 32.704L511.658667 856.277333 850.837333 421.546667z" fill="#83E2D6" p-id="3654"></path><path d="M850.816 421.568h-197.952l85.077333-261.824c4.373333-13.461333 23.445333-13.461333 27.818667 0l85.056 261.824z" fill="#04A18D" p-id="3655"></path>
</svg>
