<?xml version="1.0" standalone="no"?>
<!DOCTYPE svg PUBLIC "-//W3C//DTD SVG 1.1//EN" "http://www.w3.org/Graphics/SVG/1.1/DTD/svg11.dtd">
<svg t="1616397490863" class="icon" viewBox="0 0 1024 1024" version="1.1" xmlns="http://www.w3.org/2000/svg" p-id="2149" xmlns:xlink="http://www.w3.org/1999/xlink">
  <defs>
    <style type="text/css"></style>
  </defs>
  <path d="M776.64 765.28l82.528 82.528a27.424 27.424 0 1 1-38.784 38.784l-90.592-90.592a192 192 0 1 1 46.848-30.72z m-122.624-390.368a247.168 247.168 0 0 0-69.568 8.512A165.664 165.664 0 0 0 512 349.952v66.496a248.224 248.224 0 0 0-54.848 50.112v-116.672c-93.056 17.12-164.576 120-164.576 244.384 0 124.352 71.52 227.232 164.576 244.352v-61.76A248.224 248.224 0 0 0 512 826.976v11.648c4.576-0.832 9.12-1.92 13.6-3.168a245.28 245.28 0 0 0 71.296 27.52C563.2 884.128 525.024 896 484.576 896c-86.08 0-161.888-53.856-206.048-135.488a54.848 54.848 0 0 0-68.256 53.216 27.424 27.424 0 1 1-54.848 0 109.728 109.728 0 0 1 99.296-109.248 356.48 356.48 0 0 1-16-82.752H155.392a27.424 27.424 0 1 1 0-54.88H238.72c2.144-28.96 7.648-56.768 16-82.784a109.728 109.728 0 0 1-99.296-109.216 27.424 27.424 0 0 1 54.848 0 54.848 54.848 0 0 0 68.256 53.216 288.736 288.736 0 0 1 54.272-71.744 164.576 164.576 0 1 1 303.552 0c6.112 5.856 12.064 12.064 17.696 18.592z m99.712 23.136c3.296-7.04 5.12-14.912 5.12-23.2a27.424 27.424 0 1 1 54.88 0c0 18.784-4.736 36.48-13.056 51.968a246.848 246.848 0 0 0-46.912-28.8h-0.032zM378.752 321.6a209.536 209.536 0 0 1 105.824-29.056c37.856 0 73.76 10.432 105.824 29.056a109.824 109.824 0 0 0-105.824-138.784 109.728 109.728 0 0 0-105.824 138.784z m270.4 437.216a137.152 137.152 0 1 0 0-274.272 137.152 137.152 0 0 0 0 274.272z" p-id="2150"></path>
</svg>
