<?xml version="1.0" standalone="no"?>
<!DOCTYPE svg PUBLIC "-//W3C//DTD SVG 1.1//EN" "http://www.w3.org/Graphics/SVG/1.1/DTD/svg11.dtd">
<svg t="1617070018946" class="icon" viewBox="0 0 1024 1024" version="1.1" xmlns="http://www.w3.org/2000/svg" p-id="2887" xmlns:xlink="http://www.w3.org/1999/xlink">
  <defs>
    <style type="text/css"></style>
  </defs>
  <path d="M642.026667 637.952a80.341333 80.341333 0 0 1 69.930666-40.256 80.746667 80.746667 0 0 1 80.512 80.512 80.746667 80.746667 0 0 1-80.512 80.490667 80.96 80.96 0 0 1-69.930666-40.256h-155.968a181.312 181.312 0 0 1-176.618667 140.885333 181.013333 181.013333 0 0 1-181.12-181.12c0-90.069333 65.92-165.034667 151.936-178.624l29.184 57.856h-2.005333a120.704 120.704 0 0 0-118.741334 120.746667 120.469333 120.469333 0 0 0 120.746667 120.768 120.469333 120.469333 0 0 0 113.706667-161.002667h218.88z" fill="#04A18D" p-id="2888"></path><path d="M379.882667 638.954667a79.488 79.488 0 0 1 0 80.512c-22.144 38.741333-71.445333 51.818667-110.186667 29.674666-38.741333-22.144-51.84-71.445333-29.674667-110.186666a80.853333 80.853333 0 0 1 69.930667-40.256l77.994667-135.338667c-60.373333-56.362667-76.48-148.928-33.216-223.402667 49.813333-86.528 161.002667-116.224 247.552-66.410666a181.632 181.632 0 0 1 78.997333 220.885333l-64.917333-3.52 1.002666-1.514667a120.128 120.128 0 0 0-45.269333-163.029333c-57.877333-33.194667-131.84-13.568-165.034667 44.288a120.362667 120.362667 0 0 0 44.266667 164.522667c12.074667 7.04 25.173333 11.584 38.250667 14.08l-109.696 189.696z" fill="#83E2D6" p-id="2889"></path><path d="M509.696 410.538667a81.450667 81.450667 0 0 1-69.930667-40.256 80.746667 80.746667 0 0 1 29.674667-110.186667 80.746667 80.746667 0 0 1 110.186667 29.674667 79.488 79.488 0 0 1 0 80.512l77.994666 135.338666c78.997333-24.661333 167.04 8.042667 210.325334 82.517334 49.792 86.549333 20.117333 197.226667-66.432 247.552-77.973333 45.269333-175.573333 25.664-230.933334-42.261334l35.712-54.357333 1.024 1.514667a120.618667 120.618667 0 0 0 164.010667 42.261333c57.877333-33.194667 77.482667-107.157333 44.288-165.034667-33.216-57.856-107.178667-77.482667-165.034667-44.266666a121.578667 121.578667 0 0 0-31.189333 26.154666l-109.696-189.162666z" fill="#4FC8B9" p-id="2890"></path>
</svg>
