<?xml version="1.0" standalone="no"?>
<!DOCTYPE svg PUBLIC "-//W3C//DTD SVG 1.1//EN" "http://www.w3.org/Graphics/SVG/1.1/DTD/svg11.dtd">
<svg t="1617070180718" class="icon" viewBox="0 0 1024 1024" version="1.1" xmlns="http://www.w3.org/2000/svg" p-id="3394" xmlns:xlink="http://www.w3.org/1999/xlink">
  <defs>
    <style type="text/css"></style>
  </defs>
  <path d="M148.48 224.405333l27.242667-3.84 76.608 545.173334-27.242667 3.84zM400.256 202.922667l27.264-3.84 74.048 526.997333-27.242667 3.84zM362.56 231.381333l27.242667-3.84 70.869333 504.32-27.242667 3.84zM290.666667 181.269333l27.242666-3.84 79.829334 567.893334-27.264 3.84zM182.954667 173.226667l27.264-3.818667 82.986666 590.613333-27.242666 3.84zM240.192 118.848l27.242667-3.84 89.386666 636.074667-27.242666 3.84z" fill="#4FC8B9" p-id="3395"></path><path d="M230.186667 805.930667l68.16-9.578667 9.6 68.16-68.16 9.578667zM244.885333 910.421333l68.16-9.6 9.557334 68.181334-68.138667 9.578666zM334.677333 791.253333l68.16-9.6 9.578667 68.16-68.16 9.6zM349.376 895.744l68.138667-9.6 9.6 68.16-68.16 9.6zM439.168 776.554667l68.16-9.578667 9.578667 68.16-68.16 9.578667zM453.866667 881.066667l68.138666-9.6 9.6 68.16-68.16 9.578666z" fill="#04A18D" p-id="3396"></path><path d="M552.768 760.597333l304.405333-42.773333 9.578667 68.138667-304.426667 42.794666zM567.466667 865.066667l304.384-42.752 9.578666 68.138666-304.405333 42.773334z" fill="#83E2D6" p-id="3397"></path>
</svg>
