<?xml version="1.0" standalone="no"?>
<!DOCTYPE svg PUBLIC "-//W3C//DTD SVG 1.1//EN" "http://www.w3.org/Graphics/SVG/1.1/DTD/svg11.dtd">
<svg t="1618214606560" class="icon" viewBox="0 0 1024 1024" version="1.1" xmlns="http://www.w3.org/2000/svg" p-id="2959" xmlns:xlink="http://www.w3.org/1999/xlink">
  <defs>
    <style type="text/css"></style>
  </defs>
  <path d="M231.909053 604.375579l177.960421 177.960421a234.388211 234.388211 0 0 1-177.960421 0 234.388211 234.388211 0 0 1 0-177.960421z m373.436631 109.406316l-6.844631 108.43621-48.936421 48.990316-406.528-406.528 48.990315-48.936421 108.436211-6.844632L447.865263 261.443368c88.495158-88.495158 227.435789-100.190316 344.17179-39.289263 60.901053 116.736 49.205895 255.676632-39.289264 344.17179l-147.456 147.456zM549.564632 464.680421a71.841684 71.841684 0 1 0 101.645473-101.645474 71.841684 71.841684 0 0 0-101.645473 101.645474z" p-id="2960"></path>
</svg>
