<?xml version="1.0" standalone="no"?>
<!DOCTYPE svg PUBLIC "-//W3C//DTD SVG 1.1//EN" "http://www.w3.org/Graphics/SVG/1.1/DTD/svg11.dtd">
<svg t="1617069740235" class="icon" viewBox="0 0 1024 1024" version="1.1" xmlns="http://www.w3.org/2000/svg" p-id="2760" xmlns:xlink="http://www.w3.org/1999/xlink">
  <defs>
    <style type="text/css"></style>
  </defs>
  <path d="M832 423.104v106.666667c0 88.362667-143.296 160-320 160-176.704 0-320-71.637333-320-160v-106.666667c0 88.362667 143.296 160 320 160 176.704 0 320-71.637333 320-160z" fill="#4FC8B9" p-id="2761"></path><path d="M192 600.896c0 88.341333 143.296 160 320 160 176.704 0 320-71.658667 320-160v106.666667c0 88.341333-143.296 160-320 160-176.704 0-320-71.658667-320-160v-106.666667z" fill="#04A18D" p-id="2762"></path><path d="M512 512c-176.704 0-320-71.637333-320-160C192 263.637333 335.296 192 512 192c176.704 0 320 71.637333 320 160 0 88.362667-143.296 160-320 160z" fill="#83E2D6" p-id="2763"></path>
</svg>
