<?xml version="1.0" standalone="no"?>
<!DOCTYPE svg PUBLIC "-//W3C//DTD SVG 1.1//EN" "http://www.w3.org/Graphics/SVG/1.1/DTD/svg11.dtd">
<svg t="1616397441005" class="icon" viewBox="0 0 1024 1024" version="1.1" xmlns="http://www.w3.org/2000/svg" p-id="1523" xmlns:xlink="http://www.w3.org/1999/xlink">
  <defs>
    <style type="text/css"></style>
  </defs>
  <path d="M805.344 192H218.656A26.656 26.656 0 0 0 192 218.656V700.8c0 14.72 11.936 26.656 26.656 26.656h586.688c14.72 0 26.656-11.936 26.656-26.656V218.656A26.656 26.656 0 0 0 805.344 192z m-26.688 482.144H245.344v-428.8h533.312v428.8z m-88.064 104.512H333.408a26.656 26.656 0 0 0 0 53.344h357.184a26.656 26.656 0 0 0 0-53.344z" p-id="1524"></path><path d="M320.32 572.96a37.184 37.184 0 0 0 33.952-47.68l85.344-89.472a30.464 30.464 0 0 0 19.2 0l84.736 89.6a50.432 50.432 0 0 0-0.928 8.384 35.648 35.648 0 1 0 71.168 0 38.24 38.24 0 0 0-1.056-8.384l84.096-89.6c2.272 0.224 4.576 0.224 6.848 0a37.632 37.632 0 1 0-33.216-24.544L589.44 496.96a30.464 30.464 0 0 0-22.4 0l-83.648-88.544a35.52 35.52 0 1 0-69.632-10.048c0.032 3.392 0.512 6.752 1.344 10.048L329.92 498.56a34.144 34.144 0 0 0-9.6-1.536 37.632 37.632 0 0 0 0 75.136v0.768z" p-id="1525"></path>
</svg>
