<?xml version="1.0" standalone="no"?>
<!DOCTYPE svg PUBLIC "-//W3C//DTD SVG 1.1//EN" "http://www.w3.org/Graphics/SVG/1.1/DTD/svg11.dtd">
<svg t="1617070206035" class="icon" viewBox="0 0 1024 1024" version="1.1" xmlns="http://www.w3.org/2000/svg" p-id="3904" xmlns:xlink="http://www.w3.org/1999/xlink">
  <defs>
    <style type="text/css"></style>
  </defs>
  <path d="M512 149.333333c200.298667 0 362.666667 162.368 362.666667 362.666667l-0.085334 8.106667h-131.626666l-88.170667-199.616-1.216-2.410667c-9.962667-17.578667-36.053333-16.554667-44.586667 1.770667l-1.002666 2.496-106.24 303.104-109.653334-243.797334-1.237333-2.410666a25.194667 25.194667 0 0 0-41.6-2.752l-1.621333 2.346666-86.357334 141.269334H149.418667L149.333333 512c0-200.298667 162.368-362.666667 362.666667-362.666667z" fill="#4FC8B9" p-id="3905"></path><path d="M634.410667 399.082667l69.098666 156.373333 1.216 2.410667c4.010667 6.976 11.136 11.605333 19.136 12.458666l2.688 0.149334h143.424C842.026667 742.976 692.394667 874.666667 512 874.666667c-180.394667 0-330.026667-131.690667-357.973333-304.192h121.386666l2.901334-0.170667c6.698667-0.768 12.8-4.202667 16.938666-9.493333l1.664-2.389334 68.778667-112.597333 115.968 257.834667 1.216 2.389333c10.005333 17.429333 35.904 16.362667 44.458667-1.792l1.066666-2.602667 106.026667-302.570666z" fill="#04A18D" p-id="3906"></path>
</svg>
