<?xml version="1.0" standalone="no"?>
<!DOCTYPE svg PUBLIC "-//W3C//DTD SVG 1.1//EN" "http://www.w3.org/Graphics/SVG/1.1/DTD/svg11.dtd">
<svg t="1617070173253" class="icon" viewBox="0 0 1024 1024" version="1.1" xmlns="http://www.w3.org/2000/svg" p-id="3268" xmlns:xlink="http://www.w3.org/1999/xlink">
  <defs>
    <style type="text/css"></style>
  </defs>
  <path d="M329.386667 764.949333a243.413333 243.413333 0 0 1-172.565334-71.317333A241.984 241.984 0 0 1 85.333333 521.386667a241.984 241.984 0 0 1 71.488-172.309334c92.394667-92.736 241.557333-95.850667 337.749334-7.082666l0.981333 0.917333 33.941333 33.898667-46.698666 46.634666-33.450667-33.344a177.621333 177.621333 0 0 0-245.824 5.610667 176.448 176.448 0 0 0-52.117333 125.674667c0 47.552 18.474667 92.16 52.117333 125.674666a178.346667 178.346667 0 0 0 251.733333 0l0.554667-0.533333 209.301333-199.317333a104.042667 104.042667 0 0 1 73.642667-30.229334 104.469333 104.469333 0 1 1-68.458667 183.402667l43.285334-49.856a38.464 38.464 0 1 0-2.090667-56.32l-0.597333 0.533333-209.258667 199.317334a243.456 243.456 0 0 1-172.245333 70.890666z" fill="#4FC8B9" p-id="3269"></path><path d="M738.752 721.557333a199.296 199.296 0 0 1-137.578667-55.232l45.418667-47.850666a133.333333 133.333333 0 0 0 186.88-2.56 133.866667 133.866667 0 1 0-189.44-189.184l-0.426667 0.426666-208.042666 200.661334a150.357333 150.357333 0 0 1-212.544-212.736 151.466667 151.466667 0 0 1 203.157333-8.768l2.496 2.304 33.109333 33.045333-46.698666 46.634667-32.128-32.064a84.906667 84.906667 0 0 0-113.237334 5.482666 84.352 84.352 0 1 0 119.338667 119.210667l0.426667-0.426667 208.042666-200.64a198.826667 198.826667 0 0 1 141.226667-58.282666 199.808 199.808 0 0 1 141.397333 341.034666 199.552 199.552 0 0 1-141.397333 58.944z" fill="#83E2D6" p-id="3270"></path>
</svg>
