<?xml version="1.0" standalone="no"?>
<!DOCTYPE svg PUBLIC "-//W3C//DTD SVG 1.1//EN" "http://www.w3.org/Graphics/SVG/1.1/DTD/svg11.dtd">
<svg t="1617075388617" class="icon" viewBox="0 0 1024 1024" version="1.1" xmlns="http://www.w3.org/2000/svg" p-id="1134" xmlns:xlink="http://www.w3.org/1999/xlink">
  <defs>
    <style type="text/css"></style>
  </defs>
  <path d="M524.544 129.9456l349.8496 196.7616a25.6 25.6 0 0 1 0 44.6464l-349.8496 196.8128a25.6 25.6 0 0 1-25.088 0L149.6064 371.3536a25.6 25.6 0 0 1 0-44.6464l349.8496-196.7616a25.6 25.6 0 0 1 25.088 0z" fill="#83E2D6" p-id="1135"></path><path d="M824.6784 474.624l69.5808 39.168a12.8 12.8 0 0 1 0 22.3232l-375.9616 211.456a12.8 12.8 0 0 1-12.5952 0l-375.9616-211.456a12.8 12.8 0 0 1 0-22.3232l69.5296-39.1168L512 650.5984l312.6784-175.9232z" fill="#4FC8B9" p-id="1136"></path><path d="M824.6784 650.5472l69.5808 39.168a12.8 12.8 0 0 1 0 22.3232l-375.9616 211.456a12.8 12.8 0 0 1-12.5952 0l-375.9616-211.456a12.8 12.8 0 0 1 0-22.3232l69.5296-39.168L512 826.5216l312.6784-175.9744z" fill="#04A18D" p-id="1137"></path>
</svg>
