<?xml version="1.0" encoding="UTF-8"?>
<svg viewBox="0 0 48 48" version="1.1" xmlns="http://www.w3.org/2000/svg" xmlns:xlink="http://www.w3.org/1999/xlink">
    <title>Icon/icon_service_yapi</title>
    <g id="Icon/icon_service_yapi" stroke="none" stroke-width="1" fill="none" fill-rule="evenodd">
        <path d="M24,4.5 C34.7695526,4.5 43.5,13.2304474 43.5,24 C43.5,34.7695526 34.7695526,43.5 24,43.5 C13.2304474,43.5 4.5,34.7695526 4.5,24 C4.5,13.2304474 13.2304474,4.5 24,4.5 Z M24,7.5 C14.8873016,7.5 7.5,14.8873016 7.5,24 C7.5,33.1126984 14.8873016,40.5 24,40.5 C33.1126984,40.5 40.5,33.1126984 40.5,24 C40.5,14.8873016 33.1126984,7.5 24,7.5 Z" id="椭圆形" fill="#4FC8B9" fill-rule="nonzero"></path>
        <path d="M19,19 C20.3807119,19 21.5,20.1192881 21.5,21.5 L21.5,32.5 C21.5,33.8807119 20.3807119,35 19,35 C17.6192881,35 16.5,33.8807119 16.5,32.5 L16.5,21.5 C16.5,20.1192881 17.6192881,19 19,19 Z" id="矩形备份" fill="#83E2D6" transform="translate(19.000000, 27.000000) rotate(60.000000) translate(-19.000000, -27.000000) "></path>
        <path d="M29,19 C30.3807119,19 31.5,20.1192881 31.5,21.5 L31.5,32.5 C31.5,33.8807119 30.3807119,35 29,35 C27.6192881,35 26.5,33.8807119 26.5,32.5 L26.5,21.5 C26.5,20.1192881 27.6192881,19 29,19 Z" id="矩形备份-2" fill="#4FC8B9" transform="translate(29.000000, 27.000000) scale(-1, 1) rotate(60.000000) translate(-29.000000, -27.000000) "></path>
        <rect id="矩形" fill="#04A18D" x="21.5" y="10" width="5" height="17" rx="2.5"></rect>
        <path d="M24,25.5 C24.8284271,25.5 25.5,24.8284271 25.5,24 C25.5,23.1715729 24.8284271,22.5 24,22.5 C23.1715729,22.5 22.5,23.1715729 22.5,24 C22.5,24.8284271 23.1715729,25.5 24,25.5 Z" id="椭圆形" fill="#FFFFFF"></path>
    </g>
</svg>
