<?xml version="1.0" standalone="no"?>
<!DOCTYPE svg PUBLIC "-//W3C//DTD SVG 1.1//EN" "http://www.w3.org/Graphics/SVG/1.1/DTD/svg11.dtd">
<svg t="1617070185907" class="icon" viewBox="0 0 1024 1024" version="1.1" xmlns="http://www.w3.org/2000/svg" p-id="3521" xmlns:xlink="http://www.w3.org/1999/xlink">
  <defs>
    <style type="text/css"></style>
  </defs>
  <path d="M853.3248 85.3248C876.8768 85.3248 896 104.448 896 128v160.3072l-383.9488 384-0.256 180.8128 181.1456 0.256L896 650.3168V896c0 23.552-19.1232 42.6752-42.6752 42.6752H170.6752C147.1232 938.6752 128 919.552 128 896V128c0-23.552 19.1232-42.6752 42.6752-42.6752h682.6496zM512 512h-213.3248v85.3248H512V512z m128-170.6752H298.6752v85.3504H640v-85.3504z" fill="#83E2D6" p-id="3522"></path><path d="M929.2032 375.808l60.3136 60.3392L657.664 768l-60.416-0.0768 0.0768-60.2624L929.2032 375.808z" fill="#04A18D" p-id="3523"></path>
</svg>
