<?xml version="1.0" standalone="no"?>
<!DOCTYPE svg PUBLIC "-//W3C//DTD SVG 1.1//EN" "http://www.w3.org/Graphics/SVG/1.1/DTD/svg11.dtd">
<svg t="1616397484437" class="icon" viewBox="0 0 1024 1024" version="1.1" xmlns="http://www.w3.org/2000/svg" p-id="2024" xmlns:xlink="http://www.w3.org/1999/xlink">
  <defs>
    <style type="text/css"></style>
  </defs>
  <path d="M778.496 160.736c13.76 0 24.96 11.2 24.96 24.96v649.376a24.96 24.96 0 0 1-24.96 24.96H249.6a24.96 24.96 0 0 1-24.96-24.96V185.696c0-13.76 11.168-24.96 24.96-24.96h528.864z m-31.232 483.104H280.864v160h466.4v-160z m-397.728 52.32a31.232 31.232 0 1 1 0 62.4 31.232 31.232 0 0 1 0-62.4z m194.336 6.24c3.456 0 6.24 2.784 6.24 6.24v37.44a6.24 6.24 0 0 1-6.24 6.272h-135.04a6.24 6.24 0 0 1-6.208-6.24v-37.472a6.24 6.24 0 0 1 6.24-6.24h135.04z m203.392-275.52H280.864v167.04h466.4v-167.04z m-366.496 83.52a31.232 31.232 0 1 1-62.464 0 31.232 31.232 0 0 1 62.464 0z m169.344-18.752v37.472a6.24 6.24 0 0 1-6.24 6.24h-135.04a6.24 6.24 0 0 1-6.208-6.24v-37.44a6.24 6.24 0 0 1 6.24-6.272h135.04c3.424 0 6.208 2.816 6.208 6.24zM280.864 216.96v160h466.4v-160H280.864z m68.672 45.28a31.232 31.232 0 1 1 0 62.4 31.232 31.232 0 0 1 0-62.4z m192 6.24c3.456 0 6.24 2.784 6.24 6.24v37.44a6.24 6.24 0 0 1-6.24 6.272h-135.04a6.24 6.24 0 0 1-6.24-6.24V274.688c0-3.456 2.816-6.24 6.272-6.24h135.008z" p-id="2025"></path>
</svg>
